<svg xmlns="http://www.w3.org/2000/svg" height="800" width="1200" xml:space="preserve" y="0" x="0" id="Layer_1" version="1.1" viewBox="-45 -32.75825 390 196.5495"><style id="style1431" type="text/css">.st0{fill:#eb2329}.st1{fill:#f89621}</style><style type="text/css" id="style1431-6">.st0{fill:#eb2329}.st1{fill:#f89621}</style><style type="text/css" id="style1384">.st0{fill:#ed1c24}.st1{fill:#f7941d}</style><g transform="translate(-1266.194 -110.295) scale(2.59472)" id="g1438"><g id="g1406" transform="translate(481.988 41.407)"><g id="g1390"><path id="path1386" d="M80.6 20.7H60.4c-.4 0-.6.3-.6.6v1.6c0 .4.3.6.6.6h15.1v8.4c-.4-.6-.9-1.2-1.4-1.8-1.8-1.8-3.7-2.7-5.7-2.7-1.6 0-2.9.8-4 2.2-.9 1.2-1.4 2.6-1.4 3.9 0 1.3.2 3 1.2 4.6 1.2 1.9 3.2 2.5 5 2.5 2.3 0 4.2-1.6 4.2-3.7 0-1.2-.6-2.2-1.7-2.9l-1.1-.6v1.8c-.1.5-.9 1.2-1.8 1.2-.8 0-1.5-.3-2-.8-.3-.3-.5-.9-.4-1.3 0-.6.2-1.1.6-1.6.5-.6 1-.9 1.8-.9 2 0 3.7.9 5.1 2.9 1.1 1.7 1.7 3.3 1.7 5.1V44l3 1.8c.1.1.2.1.3.1.4 0 .6-.3.6-.6V23.6h1.2c.4 0 .6-.3.6-.6v-1.6c0-.4-.3-.7-.7-.7z" class="st0" fill="#ed1c24"/><path id="path1388" d="M121 20.7H95.4c-.4 0-.6.3-.6.6v2.8c-2.5-2.6-4.7-3.9-6.7-3.9-1.9 0-3.5.4-4.9 1.5-1.3 1-2.1 2.3-2.1 3.8 0 4.5 5 4.4 6.3 3.8.2-.1.5-.3.8-.3 1 0 1.4.8 1.4 1.5 0 1-1.5 1.9-3.3 1.9-1 0-1.6-.3-2-.9l-.8-1.2-.5 1.4c-.1.3-.3.7-.3 1.2 0 1 .5 2 1.5 2.9.9.8 2 1.2 3.2 1.2 1.9 0 3.5-.7 4.5-2.1.9-1.1 1.3-2.4 1.3-3.9 0-.8-.3-1.7-1-2.7-.8-1.2-1.8-1.8-2.9-1.8-.4 0-.9.1-1.4.3-.2.1-.6.2-.7.2-.2 0-.5-.1-.7-.4-.2-.2-.4-.5-.4-1 0-1.1 1-2.2 2.8-2.2h.1c1.2 0 2.4.6 3.5 1.7.9.9 1.6 1.8 2.2 2.8v15.9l3 1.8c.1.1.2.1.3.1.4 0 .6-.3.6-.6V23.6h4.6v13.9l3.6 1.5h.2c.3 0 .6-.2.6-.6v-.1c.6-4.1 2.4-6.9 5.4-8.6v.8c0 .6 0 2.1.1 2.9 0 .5 0 .8.1 1.1 0 1.6.2 4 .7 5.8 1 3.4 2.7 4.2 3.9 4.2h.1c.7 0 1.3-.2 1.7-.6.2-.2.5-.6.5-1.3 0-.6-.1-1.1-.3-1.5l-.3-.5-.6.1c-.6.2-.9.2-.9.1h-.1c-.2 0-.2 0-.3-.1-.2-.1-.6-.4-.9-1.5-.2-.8-.3-1.9-.3-2.5 0-4.5.9-7.9 2.4-8.6h.1c.2-.1.4-.3.4-.6 0-.1 0-.2-.1-.3v-.1c-.7-1.4-2.2-2.4-4.2-2.9h-.4c-1.6.3-3.5 1.4-5.9 3.4-.6.5-1.2 1-1.7 1.5v-5.5h14c.4 0 .6-.3.6-.6v-1.6c.1-.4-.2-.7-.6-.7z" class="st0" fill="#ed1c24"/></g><path id="path1392" d="M53.2 28.1c0 .7 0 1.3-.1 1.9-.2 2.8-.9 5.4-2 7.8-.4 1-.9 1.9-1.5 2.8-4.2 6.6-11.6 11-20 11-3.6 0-7-.8-10-2.2C11.6 45.7 6 37.5 6 28.1 6 18.8 11.4 10.8 19.1 7c-.6.8-1.2 1.6-1.7 2.5 0 .1-.1.1-.1.2-.3.3-.6.5-.9.8-.4.3-.7.7-1.1 1l-.2.2-.2.2c-.1.1-.2.3-.4.4-.2.3-.5.6-.7.9-1 1.3-1.8 2.7-2.4 4.2-.1.1-.1.3-.2.4-.1.2-.1.4-.2.5 0 .1-.1.2-.1.3-.1.3-.2.5-.3.8-.1.2-.1.4-.2.5 0 .1-.1.2-.1.3 0 .2-.1.4-.1.6l-.3 1.8c0 .2 0 .3-.1.5v2.4c0 6.4 2.9 12.2 7.6 15.9 3.6 2.9 8.1 4.7 13 4.7 4.5 0 8.6-1.4 12-3.9 2.5-1.8 4.5-4.1 6-6.8.2-.4.4-.7.6-1.1 1.2-2.5 1.9-5.2 1.9-8.1v-.7c0-.7 0-1.3-.1-2l.1.1c.3.3.6.5.9.8.3-.5.6-.9.9-1.4.2.9.3 1.8.4 2.8.1.9.1 1.6.1 2.3z" class="st0" fill="#ed1c24"/><path id="path1394" d="M32.4 9.2L28 1.1c-7.3 3.3-12.3 10.6-12.3 19.1 0 4.3 1.3 8.3 3.5 11.6-.2-1.1-.2-2.2-.2-3.4.1-8.7 5.6-16.1 13.4-19.2z" class="st1" fill="#f7941d"/><path id="path1396" d="M35.9 13.2c1.8-.5 3.8-.7 5.7-.7 1.2 0 2.5.1 3.6.3l-.1-3.6-.2-7.2c-.8-.1-1.7-.2-2.6-.2-4 0-7.7 1.3-10.7 3.4L34 9.6c-4.3 1.5-7.8 4.5-10 8.4-1.1 1.9-1.9 4.1-2.2 6.4.6-1.2 1.3-2.3 2.1-3.3 2.9-3.8 7.1-6.7 12-7.9z" class="st0" fill="#ed1c24"/><path id="path1398" d="M46.4 9.1l.2 5.1c-1.7-.5-3.4-.8-5.3-.8-3.5 0-6.8 1-9.7 2.7-3.6 2.2-6.4 5.7-7.8 9.8 1.4-1.9 3.1-3.6 5.1-4.9 2.9-1.9 6.4-3 10.1-3 2.8 0 5.4.6 7.8 1.7 1.8.8 3.4 1.9 4.8 3.3l2.8-4.2 3.6-5.5c-3.2-2.6-7.2-4.2-11.6-4.2z" class="st1" fill="#f7941d"/><path id="path1400" d="M50.9 25.7v.7c0 4.2-1.7 7.7-1.9 8.1-.2.4-.4.7-.6 1.1-1.5 2.7-3.5 5-6 6.8-3.4 2.4-7.5 3.9-12 3.9-4.9 0-9.5-1.7-13-4.7-4.6-3.8-7.6-9.5-7.6-15.9v-2.4c0-.2 0-.3.1-.5l.3-1.8c0-.2.1-.4.1-.6 0-.1.1-.2.1-.3.1-.2.1-.4.2-.5.1-.3.2-.6.3-.8 0-.1.1-.2.1-.3.1-.2.1-.4.2-.5.1-.1.1-.3.2-.4.6-1.5 1.5-2.9 2.4-4.2.2-.3.5-.6.7-.9.1-.1.2-.3.4-.4.1-.1.1-.2.2-.2.1-.1.1-.2.2-.2.3-.4.7-.7 1.1-1 .3-.3.6-.5.9-.8 0 .1-.1.1-.1.2s-.1.2-.1.2c-1.2 2.4-2 5.3-2.3 8.3-.1.8-.1 1.6-.1 2.5 0 10.8 6.3 19.5 14.1 19.5h.8c1.1 0 2.2-.2 3.3-.4 5.3-1.4 9.2-6.3 9.2-12v-.3c-.1-3.4-1.5-6.5-3.8-8.6 1.6 0 3.2.3 4.7.7 2.9.7 5.5 2.1 7.8 3.9l.1.1c-.1.4 0 1.1 0 1.7z" class="st1" fill="#f7941d"/><g id="g1404"><path id="path1402" d="M50.9 25.7v.7c0 4.4-2 8.2-2 8.2-.2.4-.4.7-.6 1.1-1.5 2.7-3.6 5-6.1 6.8-3.5 2.6-7.7 3.9-12.1 3.9-4.8 0-9.4-1.7-13.1-4.7-4.8-3.9-7.6-9.8-7.6-16 0-6.2 2.8-12.1 7.6-16l.2-.2c0 .1-.1.1-.1.2s-.1.1-.1.2c-4.7 3.9-7.4 9.6-7.4 15.8 0 6.2 2.7 11.9 7.5 15.9 3.6 3 8.3 4.6 13 4.6 4.3 0 8.5-1.3 12-3.9 2.5-1.8 4.5-4.1 6-6.8.2-.4.4-.7.5-1.1 0 0 2-3.7 2-8.1v-.7c0-.7 0-1.3-.1-2v-.1l.1.1.1.1c.2.8.2 1.4.2 2z" class="st1" fill="#f7941d"/></g></g></g></svg>