<?xml version="1.0" encoding="UTF-8" standalone="no"?>
<!DOCTYPE svg PUBLIC "-//W3C//DTD SVG 1.1//EN"
 "http://www.w3.org/Graphics/SVG/1.1/DTD/svg11.dtd">
<!-- Generated by graphviz version 2.47.0 (20210316.0004)
 -->
<!-- Title: dbml Pages: 1 -->
<svg width="651pt" height="692pt"
 viewBox="0.00 0.00 651.47 692.48" xmlns="http://www.w3.org/2000/svg" xmlns:xlink="http://www.w3.org/1999/xlink">
<g id="graph0" class="graph" transform="scale(1 1) rotate(0) translate(4 688.48)">
<title>dbml</title>
<!-- transactions -->
<g id="transactions" class="node">
<title>transactions</title>
<ellipse fill="none" stroke="black" stroke-width="0" cx="321.73" cy="-342.24" rx="321.97" ry="342.48"/>
<polygon fill="#1d71b8" stroke="transparent" points="96.73,-522.24 96.73,-582.24 547.73,-582.24 547.73,-522.24 96.73,-522.24"/>
<polygon fill="none" stroke="#29235c" points="96.73,-522.24 96.73,-582.24 547.73,-582.24 547.73,-522.24 96.73,-522.24"/>
<text text-anchor="start" x="173.74" y="-543.44" font-family="Helvetica,sans-Serif" font-weight="bold" font-size="32.00" fill="#ffffff"> &#160;&#160;&#160;&#160;&#160;&#160;transactions &#160;&#160;&#160;&#160;&#160;&#160;</text>
<polygon fill="#e7e2dd" stroke="transparent" points="96.73,-462.24 96.73,-522.24 547.73,-522.24 547.73,-462.24 96.73,-462.24"/>
<polygon fill="none" stroke="#29235c" points="96.73,-462.24 96.73,-522.24 547.73,-522.24 547.73,-462.24 96.73,-462.24"/>
<text text-anchor="start" x="107.73" y="-482.44" font-family="Helvetica,sans-Serif" font-size="32.00" fill="#29235c">created_at &#160;&#160;&#160;</text>
<text text-anchor="start" x="389.18" y="-483.44" font-family="Helvetica,sans-Serif" font-style="italic" font-size="32.00" fill="#29235c">timestamp</text>
<polygon fill="#e7e2dd" stroke="transparent" points="96.73,-402.24 96.73,-462.24 547.73,-462.24 547.73,-402.24 96.73,-402.24"/>
<polygon fill="none" stroke="#29235c" points="96.73,-402.24 96.73,-462.24 547.73,-462.24 547.73,-402.24 96.73,-402.24"/>
<text text-anchor="start" x="107.73" y="-422.44" font-family="Helvetica,sans-Serif" font-size="32.00" fill="#29235c">updated_at &#160;&#160;&#160;</text>
<text text-anchor="start" x="389.18" y="-423.44" font-family="Helvetica,sans-Serif" font-style="italic" font-size="32.00" fill="#29235c">timestamp</text>
<polygon fill="#e7e2dd" stroke="transparent" points="96.73,-342.24 96.73,-402.24 547.73,-402.24 547.73,-342.24 96.73,-342.24"/>
<polygon fill="none" stroke="#29235c" points="96.73,-342.24 96.73,-402.24 547.73,-402.24 547.73,-342.24 96.73,-342.24"/>
<text text-anchor="start" x="107.43" y="-362.44" font-family="Helvetica,sans-Serif" font-size="32.00" fill="#29235c">confirmation_source &#160;&#160;&#160;</text>
<text text-anchor="start" x="430.4" y="-363.44" font-family="Helvetica,sans-Serif" font-style="italic" font-size="32.00" fill="#29235c">varchar</text>
<polygon fill="#e7e2dd" stroke="transparent" points="96.73,-282.24 96.73,-342.24 547.73,-342.24 547.73,-282.24 96.73,-282.24"/>
<polygon fill="none" stroke="#29235c" points="96.73,-282.24 96.73,-342.24 547.73,-342.24 547.73,-282.24 96.73,-282.24"/>
<text text-anchor="start" x="107.73" y="-302.44" font-family="Helvetica,sans-Serif" font-size="32.00" fill="#29235c">id &#160;&#160;&#160;</text>
<text text-anchor="start" x="502.95" y="-303.44" font-family="Helvetica,sans-Serif" font-style="italic" font-size="32.00" fill="#29235c">int</text>
<polygon fill="#e7e2dd" stroke="transparent" points="96.73,-222.24 96.73,-282.24 547.73,-282.24 547.73,-222.24 96.73,-222.24"/>
<polygon fill="none" stroke="#29235c" points="96.73,-222.24 96.73,-282.24 547.73,-282.24 547.73,-222.24 96.73,-222.24"/>
<text text-anchor="start" x="107.73" y="-242.44" font-family="Helvetica,sans-Serif" font-size="32.00" fill="#29235c">trx_status &#160;&#160;&#160;</text>
<text text-anchor="start" x="430.06" y="-243.44" font-family="Helvetica,sans-Serif" font-style="italic" font-size="32.00" fill="#29235c">varchar</text>
<polygon fill="#e7e2dd" stroke="transparent" points="96.73,-162.24 96.73,-222.24 547.73,-222.24 547.73,-162.24 96.73,-162.24"/>
<polygon fill="none" stroke="#29235c" points="96.73,-162.24 96.73,-222.24 547.73,-222.24 547.73,-162.24 96.73,-162.24"/>
<text text-anchor="start" x="107.73" y="-182.44" font-family="Helvetica,sans-Serif" font-size="32.00" fill="#29235c">trx_metadata &#160;&#160;&#160;</text>
<text text-anchor="start" x="430.06" y="-183.44" font-family="Helvetica,sans-Serif" font-style="italic" font-size="32.00" fill="#29235c">varchar</text>
<polygon fill="#e7e2dd" stroke="transparent" points="96.73,-102.24 96.73,-162.24 547.73,-162.24 547.73,-102.24 96.73,-102.24"/>
<polygon fill="none" stroke="#29235c" points="96.73,-102.24 96.73,-162.24 547.73,-162.24 547.73,-102.24 96.73,-102.24"/>
<text text-anchor="start" x="107.73" y="-122.44" font-family="Helvetica,sans-Serif" font-size="32.00" fill="#29235c">trx_hash &#160;&#160;&#160;</text>
<text text-anchor="start" x="430.06" y="-123.44" font-family="Helvetica,sans-Serif" font-style="italic" font-size="32.00" fill="#29235c">varchar</text>
<polygon fill="none" stroke="#29235c" stroke-width="2" points="95.23,-101.24 95.23,-583.24 548.23,-583.24 548.23,-101.24 95.23,-101.24"/>
</g>
</g>
</svg>
