<?xml version="1.0" encoding="UTF-8" standalone="no"?>
<!DOCTYPE svg PUBLIC "-//W3C//DTD SVG 1.1//EN"
 "http://www.w3.org/Graphics/SVG/1.1/DTD/svg11.dtd">
<!-- Generated by graphviz version 2.47.0 (20210316.0004)
 -->
<!-- Title: dbml Pages: 1 -->
<svg width="609pt" height="1117pt"
 viewBox="0.00 0.00 609.04 1116.74" xmlns="http://www.w3.org/2000/svg" xmlns:xlink="http://www.w3.org/1999/xlink">
<g id="graph0" class="graph" transform="scale(1 1) rotate(0) translate(4 1112.74)">
<title>dbml</title>
<!-- Proposal -->
<g id="Proposal" class="node">
<title>Proposal</title>
<ellipse fill="none" stroke="black" stroke-width="0" cx="300.52" cy="-554.37" rx="300.54" ry="554.24"/>
<polygon fill="#1d71b8" stroke="transparent" points="90.52,-884.37 90.52,-944.37 511.52,-944.37 511.52,-884.37 90.52,-884.37"/>
<polygon fill="none" stroke="#29235c" points="90.52,-884.37 90.52,-944.37 511.52,-944.37 511.52,-884.37 90.52,-884.37"/>
<text text-anchor="start" x="175.65" y="-905.57" font-family="Helvetica,sans-Serif" font-weight="bold" font-size="32.00" fill="#ffffff"> &#160;&#160;&#160;&#160;&#160;&#160;Proposal &#160;&#160;&#160;&#160;&#160;&#160;</text>
<polygon fill="#e7e2dd" stroke="transparent" points="90.52,-824.37 90.52,-884.37 511.52,-884.37 511.52,-824.37 90.52,-824.37"/>
<polygon fill="none" stroke="#29235c" points="90.52,-824.37 90.52,-884.37 511.52,-884.37 511.52,-824.37 90.52,-824.37"/>
<text text-anchor="start" x="101.52" y="-844.57" font-family="Helvetica,sans-Serif" font-size="32.00" fill="#29235c">updated_at &#160;&#160;&#160;</text>
<text text-anchor="start" x="352.96" y="-845.57" font-family="Helvetica,sans-Serif" font-style="italic" font-size="32.00" fill="#29235c">timestamp</text>
<polygon fill="#e7e2dd" stroke="transparent" points="90.52,-764.37 90.52,-824.37 511.52,-824.37 511.52,-764.37 90.52,-764.37"/>
<polygon fill="none" stroke="#29235c" points="90.52,-764.37 90.52,-824.37 511.52,-824.37 511.52,-764.37 90.52,-764.37"/>
<text text-anchor="start" x="101.52" y="-784.57" font-family="Helvetica,sans-Serif" font-size="32.00" fill="#29235c">proposal_onchain_id &#160;&#160;&#160;</text>
<text text-anchor="start" x="466.74" y="-785.57" font-family="Helvetica,sans-Serif" font-style="italic" font-size="32.00" fill="#29235c">int</text>
<polygon fill="#e7e2dd" stroke="transparent" points="90.52,-704.37 90.52,-764.37 511.52,-764.37 511.52,-704.37 90.52,-704.37"/>
<polygon fill="none" stroke="#29235c" points="90.52,-704.37 90.52,-764.37 511.52,-764.37 511.52,-704.37 90.52,-704.37"/>
<text text-anchor="start" x="101.52" y="-724.57" font-family="Helvetica,sans-Serif" font-size="32.00" fill="#29235c">proposal_type &#160;&#160;&#160;</text>
<text text-anchor="start" x="393.85" y="-725.57" font-family="Helvetica,sans-Serif" font-style="italic" font-size="32.00" fill="#29235c">varchar</text>
<polygon fill="#e7e2dd" stroke="transparent" points="90.52,-644.37 90.52,-704.37 511.52,-704.37 511.52,-644.37 90.52,-644.37"/>
<polygon fill="none" stroke="#29235c" points="90.52,-644.37 90.52,-704.37 511.52,-704.37 511.52,-644.37 90.52,-644.37"/>
<text text-anchor="start" x="101.52" y="-664.57" font-family="Helvetica,sans-Serif" font-size="32.00" fill="#29235c">audit_id &#160;&#160;&#160;</text>
<text text-anchor="start" x="466.74" y="-665.57" font-family="Helvetica,sans-Serif" font-style="italic" font-size="32.00" fill="#29235c">int</text>
<polygon fill="#e7e2dd" stroke="transparent" points="90.52,-584.37 90.52,-644.37 511.52,-644.37 511.52,-584.37 90.52,-584.37"/>
<polygon fill="none" stroke="#29235c" points="90.52,-584.37 90.52,-644.37 511.52,-644.37 511.52,-584.37 90.52,-584.37"/>
<text text-anchor="start" x="101.52" y="-604.57" font-family="Helvetica,sans-Serif" font-size="32.00" fill="#29235c">trx_status &#160;&#160;&#160;</text>
<text text-anchor="start" x="466.74" y="-605.57" font-family="Helvetica,sans-Serif" font-style="italic" font-size="32.00" fill="#29235c">int</text>
<polygon fill="#e7e2dd" stroke="transparent" points="90.52,-524.37 90.52,-584.37 511.52,-584.37 511.52,-524.37 90.52,-524.37"/>
<polygon fill="none" stroke="#29235c" points="90.52,-524.37 90.52,-584.37 511.52,-584.37 511.52,-524.37 90.52,-524.37"/>
<text text-anchor="start" x="101.52" y="-544.57" font-family="Helvetica,sans-Serif" font-size="32.00" fill="#29235c">created_at &#160;&#160;&#160;</text>
<text text-anchor="start" x="352.96" y="-545.57" font-family="Helvetica,sans-Serif" font-style="italic" font-size="32.00" fill="#29235c">timestamp</text>
<polygon fill="#e7e2dd" stroke="transparent" points="90.52,-464.37 90.52,-524.37 511.52,-524.37 511.52,-464.37 90.52,-464.37"/>
<polygon fill="none" stroke="#29235c" points="90.52,-464.37 90.52,-524.37 511.52,-524.37 511.52,-464.37 90.52,-464.37"/>
<text text-anchor="start" x="101.52" y="-484.57" font-family="Helvetica,sans-Serif" font-size="32.00" fill="#29235c">id &#160;&#160;&#160;</text>
<text text-anchor="start" x="466.74" y="-485.57" font-family="Helvetica,sans-Serif" font-style="italic" font-size="32.00" fill="#29235c">int</text>
<polygon fill="#e7e2dd" stroke="transparent" points="90.52,-404.37 90.52,-464.37 511.52,-464.37 511.52,-404.37 90.52,-404.37"/>
<polygon fill="none" stroke="#29235c" points="90.52,-404.37 90.52,-464.37 511.52,-464.37 511.52,-404.37 90.52,-404.37"/>
<text text-anchor="start" x="101.52" y="-424.57" font-family="Helvetica,sans-Serif" font-size="32.00" fill="#29235c">proposal_status &#160;&#160;&#160;</text>
<text text-anchor="start" x="393.85" y="-425.57" font-family="Helvetica,sans-Serif" font-style="italic" font-size="32.00" fill="#29235c">varchar</text>
<polygon fill="#e7e2dd" stroke="transparent" points="90.52,-344.37 90.52,-404.37 511.52,-404.37 511.52,-344.37 90.52,-344.37"/>
<polygon fill="none" stroke="#29235c" points="90.52,-344.37 90.52,-404.37 511.52,-404.37 511.52,-344.37 90.52,-344.37"/>
<text text-anchor="start" x="101.52" y="-364.57" font-family="Helvetica,sans-Serif" font-size="32.00" fill="#29235c">metadata &#160;&#160;&#160;</text>
<text text-anchor="start" x="393.85" y="-365.57" font-family="Helvetica,sans-Serif" font-style="italic" font-size="32.00" fill="#29235c">varchar</text>
<polygon fill="#e7e2dd" stroke="transparent" points="90.52,-284.37 90.52,-344.37 511.52,-344.37 511.52,-284.37 90.52,-284.37"/>
<polygon fill="none" stroke="#29235c" points="90.52,-284.37 90.52,-344.37 511.52,-344.37 511.52,-284.37 90.52,-284.37"/>
<text text-anchor="start" x="101.31" y="-304.57" font-family="Helvetica,sans-Serif" font-size="32.00" fill="#29235c">proposer_address &#160;&#160;&#160;</text>
<text text-anchor="start" x="394.18" y="-305.57" font-family="Helvetica,sans-Serif" font-style="italic" font-size="32.00" fill="#29235c">varchar</text>
<polygon fill="#e7e2dd" stroke="transparent" points="90.52,-224.37 90.52,-284.37 511.52,-284.37 511.52,-224.37 90.52,-224.37"/>
<polygon fill="none" stroke="#29235c" points="90.52,-224.37 90.52,-284.37 511.52,-284.37 511.52,-224.37 90.52,-224.37"/>
<text text-anchor="start" x="101.52" y="-244.57" font-family="Helvetica,sans-Serif" font-size="32.00" fill="#29235c">processed_by &#160;&#160;&#160;</text>
<text text-anchor="start" x="393.85" y="-245.57" font-family="Helvetica,sans-Serif" font-style="italic" font-size="32.00" fill="#29235c">varchar</text>
<polygon fill="#e7e2dd" stroke="transparent" points="90.52,-164.37 90.52,-224.37 511.52,-224.37 511.52,-164.37 90.52,-164.37"/>
<polygon fill="none" stroke="#29235c" points="90.52,-164.37 90.52,-224.37 511.52,-224.37 511.52,-164.37 90.52,-164.37"/>
<text text-anchor="start" x="101.52" y="-184.57" font-family="Helvetica,sans-Serif" font-size="32.00" fill="#29235c">trx_hash &#160;&#160;&#160;</text>
<text text-anchor="start" x="393.85" y="-185.57" font-family="Helvetica,sans-Serif" font-style="italic" font-size="32.00" fill="#29235c">varchar</text>
<polygon fill="none" stroke="#29235c" stroke-width="2" points="89.02,-163.37 89.02,-945.37 512.02,-945.37 512.02,-163.37 89.02,-163.37"/>
</g>
</g>
</svg>
