<?xml version="1.0" encoding="UTF-8" standalone="no"?>
<!DOCTYPE svg PUBLIC "-//W3C//DTD SVG 1.1//EN"
 "http://www.w3.org/Graphics/SVG/1.1/DTD/svg11.dtd">
<!-- Generated by graphviz version 2.47.0 (20210316.0004)
 -->
<!-- Title: dbml Pages: 1 -->
<svg width="823pt" height="2861pt"
 viewBox="0.00 0.00 822.59 2861.46" xmlns="http://www.w3.org/2000/svg" xmlns:xlink="http://www.w3.org/1999/xlink">
<g id="graph0" class="graph" transform="scale(1 1) rotate(0) translate(4 2857.46)">
<title>dbml</title>
<!-- mfs_businesses -->
<g id="mfs_businesses" class="node">
<title>mfs_businesses</title>
<ellipse fill="none" stroke="black" stroke-width="0" cx="407.29" cy="-681.65" rx="407.09" ry="681.8"/>
<polygon fill="#1d71b8" stroke="transparent" points="121.29,-1101.65 121.29,-1161.65 693.29,-1161.65 693.29,-1101.65 121.29,-1101.65"/>
<polygon fill="none" stroke="#29235c" points="121.29,-1101.65 121.29,-1161.65 693.29,-1161.65 693.29,-1101.65 121.29,-1101.65"/>
<text text-anchor="start" x="230.35" y="-1122.85" font-family="Helvetica,sans-Serif" font-weight="bold" font-size="32.00" fill="#ffffff"> &#160;&#160;&#160;&#160;&#160;&#160;mfs_businesses &#160;&#160;&#160;&#160;&#160;&#160;</text>
<polygon fill="#e7e2dd" stroke="transparent" points="121.29,-1041.65 121.29,-1101.65 693.29,-1101.65 693.29,-1041.65 121.29,-1041.65"/>
<polygon fill="none" stroke="#29235c" points="121.29,-1041.65 121.29,-1101.65 693.29,-1101.65 693.29,-1041.65 121.29,-1041.65"/>
<text text-anchor="start" x="132.29" y="-1061.85" font-family="Helvetica,sans-Serif" font-size="32.00" fill="#29235c">id &#160;&#160;&#160;</text>
<text text-anchor="start" x="648.51" y="-1062.85" font-family="Helvetica,sans-Serif" font-style="italic" font-size="32.00" fill="#29235c">int</text>
<polygon fill="#e7e2dd" stroke="transparent" points="121.29,-981.65 121.29,-1041.65 693.29,-1041.65 693.29,-981.65 121.29,-981.65"/>
<polygon fill="none" stroke="#29235c" points="121.29,-981.65 121.29,-1041.65 693.29,-1041.65 693.29,-981.65 121.29,-981.65"/>
<text text-anchor="start" x="132.29" y="-1001.85" font-family="Helvetica,sans-Serif" font-size="32.00" fill="#29235c">is_approved &#160;&#160;&#160;</text>
<text text-anchor="start" x="568.46" y="-1002.85" font-family="Helvetica,sans-Serif" font-style="italic" font-size="32.00" fill="#29235c">boolean</text>
<polygon fill="#e7e2dd" stroke="transparent" points="121.29,-921.65 121.29,-981.65 693.29,-981.65 693.29,-921.65 121.29,-921.65"/>
<polygon fill="none" stroke="#29235c" points="121.29,-921.65 121.29,-981.65 693.29,-981.65 693.29,-921.65 121.29,-921.65"/>
<text text-anchor="start" x="132.29" y="-941.85" font-family="Helvetica,sans-Serif" font-size="32.00" fill="#29235c">proposal_onchain_id &#160;&#160;&#160;</text>
<text text-anchor="start" x="648.51" y="-942.85" font-family="Helvetica,sans-Serif" font-style="italic" font-size="32.00" fill="#29235c">int</text>
<polygon fill="#e7e2dd" stroke="transparent" points="121.29,-861.65 121.29,-921.65 693.29,-921.65 693.29,-861.65 121.29,-861.65"/>
<polygon fill="none" stroke="#29235c" points="121.29,-861.65 121.29,-921.65 693.29,-921.65 693.29,-861.65 121.29,-861.65"/>
<text text-anchor="start" x="132.01" y="-881.85" font-family="Helvetica,sans-Serif" font-size="32.00" fill="#29235c">membership_onchain_status &#160;&#160;&#160;</text>
<text text-anchor="start" x="575.96" y="-882.85" font-family="Helvetica,sans-Serif" font-style="italic" font-size="32.00" fill="#29235c">varchar</text>
<polygon fill="#e7e2dd" stroke="transparent" points="121.29,-801.65 121.29,-861.65 693.29,-861.65 693.29,-801.65 121.29,-801.65"/>
<polygon fill="none" stroke="#29235c" points="121.29,-801.65 121.29,-861.65 693.29,-861.65 693.29,-801.65 121.29,-801.65"/>
<text text-anchor="start" x="132.29" y="-821.85" font-family="Helvetica,sans-Serif" font-size="32.00" fill="#29235c">created_at &#160;&#160;&#160;</text>
<text text-anchor="start" x="534.74" y="-822.85" font-family="Helvetica,sans-Serif" font-style="italic" font-size="32.00" fill="#29235c">timestamp</text>
<polygon fill="#e7e2dd" stroke="transparent" points="121.29,-741.65 121.29,-801.65 693.29,-801.65 693.29,-741.65 121.29,-741.65"/>
<polygon fill="none" stroke="#29235c" points="121.29,-741.65 121.29,-801.65 693.29,-801.65 693.29,-741.65 121.29,-741.65"/>
<text text-anchor="start" x="132.29" y="-761.85" font-family="Helvetica,sans-Serif" font-size="32.00" fill="#29235c">updated_at &#160;&#160;&#160;</text>
<text text-anchor="start" x="534.74" y="-762.85" font-family="Helvetica,sans-Serif" font-style="italic" font-size="32.00" fill="#29235c">timestamp</text>
<polygon fill="#e7e2dd" stroke="transparent" points="121.29,-681.65 121.29,-741.65 693.29,-741.65 693.29,-681.65 121.29,-681.65"/>
<polygon fill="none" stroke="#29235c" points="121.29,-681.65 121.29,-741.65 693.29,-741.65 693.29,-681.65 121.29,-681.65"/>
<text text-anchor="start" x="132.29" y="-701.85" font-family="Helvetica,sans-Serif" font-size="32.00" fill="#29235c">trx_hash &#160;&#160;&#160;</text>
<text text-anchor="start" x="575.62" y="-702.85" font-family="Helvetica,sans-Serif" font-style="italic" font-size="32.00" fill="#29235c">varchar</text>
<polygon fill="#e7e2dd" stroke="transparent" points="121.29,-621.65 121.29,-681.65 693.29,-681.65 693.29,-621.65 121.29,-621.65"/>
<polygon fill="none" stroke="#29235c" points="121.29,-621.65 121.29,-681.65 693.29,-681.65 693.29,-621.65 121.29,-621.65"/>
<text text-anchor="start" x="132.29" y="-641.85" font-family="Helvetica,sans-Serif" font-size="32.00" fill="#29235c">wallet_address &#160;&#160;&#160;</text>
<text text-anchor="start" x="575.62" y="-642.85" font-family="Helvetica,sans-Serif" font-style="italic" font-size="32.00" fill="#29235c">varchar</text>
<polygon fill="#e7e2dd" stroke="transparent" points="121.29,-561.65 121.29,-621.65 693.29,-621.65 693.29,-561.65 121.29,-561.65"/>
<polygon fill="none" stroke="#29235c" points="121.29,-561.65 121.29,-621.65 693.29,-621.65 693.29,-561.65 121.29,-561.65"/>
<text text-anchor="start" x="132.29" y="-581.85" font-family="Helvetica,sans-Serif" font-size="32.00" fill="#29235c">native_currency &#160;&#160;&#160;</text>
<text text-anchor="start" x="575.62" y="-582.85" font-family="Helvetica,sans-Serif" font-style="italic" font-size="32.00" fill="#29235c">varchar</text>
<polygon fill="#e7e2dd" stroke="transparent" points="121.29,-501.65 121.29,-561.65 693.29,-561.65 693.29,-501.65 121.29,-501.65"/>
<polygon fill="none" stroke="#29235c" points="121.29,-501.65 121.29,-561.65 693.29,-561.65 693.29,-501.65 121.29,-501.65"/>
<text text-anchor="start" x="132.29" y="-521.85" font-family="Helvetica,sans-Serif" font-size="32.00" fill="#29235c">certificate &#160;&#160;&#160;</text>
<text text-anchor="start" x="575.62" y="-522.85" font-family="Helvetica,sans-Serif" font-style="italic" font-size="32.00" fill="#29235c">varchar</text>
<polygon fill="#e7e2dd" stroke="transparent" points="121.29,-441.65 121.29,-501.65 693.29,-501.65 693.29,-441.65 121.29,-441.65"/>
<polygon fill="none" stroke="#29235c" points="121.29,-441.65 121.29,-501.65 693.29,-501.65 693.29,-441.65 121.29,-441.65"/>
<text text-anchor="start" x="132.29" y="-461.85" font-family="Helvetica,sans-Serif" font-size="32.00" fill="#29235c">name &#160;&#160;&#160;</text>
<text text-anchor="start" x="575.62" y="-462.85" font-family="Helvetica,sans-Serif" font-style="italic" font-size="32.00" fill="#29235c">varchar</text>
<polygon fill="#e7e2dd" stroke="transparent" points="121.29,-381.65 121.29,-441.65 693.29,-441.65 693.29,-381.65 121.29,-381.65"/>
<polygon fill="none" stroke="#29235c" points="121.29,-381.65 121.29,-441.65 693.29,-441.65 693.29,-381.65 121.29,-381.65"/>
<text text-anchor="start" x="132.29" y="-401.85" font-family="Helvetica,sans-Serif" font-size="32.00" fill="#29235c">email &#160;&#160;&#160;</text>
<text text-anchor="start" x="575.62" y="-402.85" font-family="Helvetica,sans-Serif" font-style="italic" font-size="32.00" fill="#29235c">varchar</text>
<polygon fill="#e7e2dd" stroke="transparent" points="121.29,-321.65 121.29,-381.65 693.29,-381.65 693.29,-321.65 121.29,-321.65"/>
<polygon fill="none" stroke="#29235c" points="121.29,-321.65 121.29,-381.65 693.29,-381.65 693.29,-321.65 121.29,-321.65"/>
<text text-anchor="start" x="132.29" y="-341.85" font-family="Helvetica,sans-Serif" font-size="32.00" fill="#29235c">context &#160;&#160;&#160;</text>
<text text-anchor="start" x="575.62" y="-342.85" font-family="Helvetica,sans-Serif" font-style="italic" font-size="32.00" fill="#29235c">varchar</text>
<polygon fill="#e7e2dd" stroke="transparent" points="121.29,-261.65 121.29,-321.65 693.29,-321.65 693.29,-261.65 121.29,-261.65"/>
<polygon fill="none" stroke="#29235c" points="121.29,-261.65 121.29,-321.65 693.29,-321.65 693.29,-261.65 121.29,-261.65"/>
<text text-anchor="start" x="132.29" y="-281.85" font-family="Helvetica,sans-Serif" font-size="32.00" fill="#29235c">type &#160;&#160;&#160;</text>
<text text-anchor="start" x="575.62" y="-282.85" font-family="Helvetica,sans-Serif" font-style="italic" font-size="32.00" fill="#29235c">varchar</text>
<polygon fill="#e7e2dd" stroke="transparent" points="121.29,-201.65 121.29,-261.65 693.29,-261.65 693.29,-201.65 121.29,-201.65"/>
<polygon fill="none" stroke="#29235c" points="121.29,-201.65 121.29,-261.65 693.29,-261.65 693.29,-201.65 121.29,-201.65"/>
<text text-anchor="start" x="132.29" y="-221.85" font-family="Helvetica,sans-Serif" font-size="32.00" fill="#29235c">location &#160;&#160;&#160;</text>
<text text-anchor="start" x="575.62" y="-222.85" font-family="Helvetica,sans-Serif" font-style="italic" font-size="32.00" fill="#29235c">varchar</text>
<polygon fill="none" stroke="#29235c" stroke-width="2" points="120.29,-200.65 120.29,-1162.65 694.29,-1162.65 694.29,-200.65 120.29,-200.65"/>
</g>
<!-- users -->
<g id="users" class="node">
<title>users</title>
<ellipse fill="none" stroke="black" stroke-width="0" cx="407.29" cy="-1808.65" rx="260.43" ry="427.19"/>
<polygon fill="#1d71b8" stroke="transparent" points="225.29,-2048.65 225.29,-2108.65 589.29,-2108.65 589.29,-2048.65 225.29,-2048.65"/>
<polygon fill="none" stroke="#29235c" points="225.29,-2048.65 225.29,-2108.65 589.29,-2108.65 589.29,-2048.65 225.29,-2048.65"/>
<text text-anchor="start" x="305.93" y="-2069.85" font-family="Helvetica,sans-Serif" font-weight="bold" font-size="32.00" fill="#ffffff"> &#160;&#160;&#160;&#160;&#160;&#160;users &#160;&#160;&#160;&#160;&#160;&#160;</text>
<polygon fill="#e7e2dd" stroke="transparent" points="225.29,-1988.65 225.29,-2048.65 589.29,-2048.65 589.29,-1988.65 225.29,-1988.65"/>
<polygon fill="none" stroke="#29235c" points="225.29,-1988.65 225.29,-2048.65 589.29,-2048.65 589.29,-1988.65 225.29,-1988.65"/>
<text text-anchor="start" x="236.29" y="-2008.85" font-family="Helvetica,sans-Serif" font-size="32.00" fill="#29235c">exchangeUserId &#160;&#160;&#160;</text>
<text text-anchor="start" x="544.51" y="-2009.85" font-family="Helvetica,sans-Serif" font-style="italic" font-size="32.00" fill="#29235c">int</text>
<polygon fill="#e7e2dd" stroke="transparent" points="225.29,-1928.65 225.29,-1988.65 589.29,-1988.65 589.29,-1928.65 225.29,-1928.65"/>
<polygon fill="none" stroke="#29235c" points="225.29,-1928.65 225.29,-1988.65 589.29,-1988.65 589.29,-1928.65 225.29,-1928.65"/>
<text text-anchor="start" x="235.96" y="-1948.85" font-family="Helvetica,sans-Serif" font-size="32.00" fill="#29235c">updated_at &#160;&#160;&#160;</text>
<text text-anchor="start" x="431.01" y="-1949.85" font-family="Helvetica,sans-Serif" font-style="italic" font-size="32.00" fill="#29235c">timestamp</text>
<polygon fill="#e7e2dd" stroke="transparent" points="225.29,-1868.65 225.29,-1928.65 589.29,-1928.65 589.29,-1868.65 225.29,-1868.65"/>
<polygon fill="none" stroke="#29235c" points="225.29,-1868.65 225.29,-1928.65 589.29,-1928.65 589.29,-1868.65 225.29,-1868.65"/>
<text text-anchor="start" x="236.29" y="-1888.85" font-family="Helvetica,sans-Serif" font-size="32.00" fill="#29235c">mfsBusinessId &#160;&#160;&#160;</text>
<text text-anchor="start" x="544.51" y="-1889.85" font-family="Helvetica,sans-Serif" font-style="italic" font-size="32.00" fill="#29235c">int</text>
<polygon fill="#e7e2dd" stroke="transparent" points="225.29,-1808.65 225.29,-1868.65 589.29,-1868.65 589.29,-1808.65 225.29,-1808.65"/>
<polygon fill="none" stroke="#29235c" points="225.29,-1808.65 225.29,-1868.65 589.29,-1868.65 589.29,-1808.65 225.29,-1808.65"/>
<text text-anchor="start" x="236.29" y="-1828.85" font-family="Helvetica,sans-Serif" font-size="32.00" fill="#29235c">id &#160;&#160;&#160;</text>
<text text-anchor="start" x="544.51" y="-1829.85" font-family="Helvetica,sans-Serif" font-style="italic" font-size="32.00" fill="#29235c">int</text>
<polygon fill="#e7e2dd" stroke="transparent" points="225.29,-1748.65 225.29,-1808.65 589.29,-1808.65 589.29,-1748.65 225.29,-1748.65"/>
<polygon fill="none" stroke="#29235c" points="225.29,-1748.65 225.29,-1808.65 589.29,-1808.65 589.29,-1748.65 225.29,-1748.65"/>
<text text-anchor="start" x="236.29" y="-1768.85" font-family="Helvetica,sans-Serif" font-size="32.00" fill="#29235c">role &#160;&#160;&#160;</text>
<text text-anchor="start" x="471.62" y="-1769.85" font-family="Helvetica,sans-Serif" font-style="italic" font-size="32.00" fill="#29235c">varchar</text>
<polygon fill="#e7e2dd" stroke="transparent" points="225.29,-1688.65 225.29,-1748.65 589.29,-1748.65 589.29,-1688.65 225.29,-1688.65"/>
<polygon fill="none" stroke="#29235c" points="225.29,-1688.65 225.29,-1748.65 589.29,-1748.65 589.29,-1688.65 225.29,-1688.65"/>
<text text-anchor="start" x="236.29" y="-1708.85" font-family="Helvetica,sans-Serif" font-size="32.00" fill="#29235c">created_at &#160;&#160;&#160;</text>
<text text-anchor="start" x="430.74" y="-1709.85" font-family="Helvetica,sans-Serif" font-style="italic" font-size="32.00" fill="#29235c">timestamp</text>
<polygon fill="#e7e2dd" stroke="transparent" points="225.29,-1628.65 225.29,-1688.65 589.29,-1688.65 589.29,-1628.65 225.29,-1628.65"/>
<polygon fill="none" stroke="#29235c" points="225.29,-1628.65 225.29,-1688.65 589.29,-1688.65 589.29,-1628.65 225.29,-1628.65"/>
<text text-anchor="start" x="236.29" y="-1648.85" font-family="Helvetica,sans-Serif" font-size="32.00" fill="#29235c">name &#160;&#160;&#160;</text>
<text text-anchor="start" x="471.62" y="-1649.85" font-family="Helvetica,sans-Serif" font-style="italic" font-size="32.00" fill="#29235c">varchar</text>
<polygon fill="#e7e2dd" stroke="transparent" points="225.29,-1568.65 225.29,-1628.65 589.29,-1628.65 589.29,-1568.65 225.29,-1568.65"/>
<polygon fill="none" stroke="#29235c" points="225.29,-1568.65 225.29,-1628.65 589.29,-1628.65 589.29,-1568.65 225.29,-1568.65"/>
<text text-anchor="start" x="236.29" y="-1588.85" font-family="Helvetica,sans-Serif" font-size="32.00" fill="#29235c">email &#160;&#160;&#160;</text>
<text text-anchor="start" x="471.62" y="-1589.85" font-family="Helvetica,sans-Serif" font-style="italic" font-size="32.00" fill="#29235c">varchar</text>
<polygon fill="#e7e2dd" stroke="transparent" points="225.29,-1508.65 225.29,-1568.65 589.29,-1568.65 589.29,-1508.65 225.29,-1508.65"/>
<polygon fill="none" stroke="#29235c" points="225.29,-1508.65 225.29,-1568.65 589.29,-1568.65 589.29,-1508.65 225.29,-1508.65"/>
<text text-anchor="start" x="236.29" y="-1528.85" font-family="Helvetica,sans-Serif" font-size="32.00" fill="#29235c">password &#160;&#160;&#160;</text>
<text text-anchor="start" x="471.62" y="-1529.85" font-family="Helvetica,sans-Serif" font-style="italic" font-size="32.00" fill="#29235c">varchar</text>
<polygon fill="none" stroke="#29235c" stroke-width="2" points="224.29,-1507.65 224.29,-2109.65 590.29,-2109.65 590.29,-1507.65 224.29,-1507.65"/>
</g>
<!-- exchange_users -->
<g id="exchange_users" class="node">
<title>exchange_users</title>
<ellipse fill="none" stroke="black" stroke-width="0" cx="407.29" cy="-2553.65" rx="272.47" ry="299.63"/>
<polygon fill="#1d71b8" stroke="transparent" points="217.29,-2703.65 217.29,-2763.65 598.29,-2763.65 598.29,-2703.65 217.29,-2703.65"/>
<polygon fill="none" stroke="#29235c" points="217.29,-2703.65 217.29,-2763.65 598.29,-2763.65 598.29,-2703.65 217.29,-2703.65"/>
<text text-anchor="start" x="228.17" y="-2724.85" font-family="Helvetica,sans-Serif" font-weight="bold" font-size="32.00" fill="#ffffff"> &#160;&#160;&#160;&#160;&#160;&#160;exchange_users &#160;&#160;&#160;&#160;&#160;&#160;</text>
<polygon fill="#e7e2dd" stroke="transparent" points="217.29,-2643.65 217.29,-2703.65 598.29,-2703.65 598.29,-2643.65 217.29,-2643.65"/>
<polygon fill="none" stroke="#29235c" points="217.29,-2643.65 217.29,-2703.65 598.29,-2703.65 598.29,-2643.65 217.29,-2643.65"/>
<text text-anchor="start" x="228.29" y="-2663.85" font-family="Helvetica,sans-Serif" font-size="32.00" fill="#29235c">id &#160;&#160;&#160;</text>
<text text-anchor="start" x="553.51" y="-2664.85" font-family="Helvetica,sans-Serif" font-style="italic" font-size="32.00" fill="#29235c">int</text>
<polygon fill="#e7e2dd" stroke="transparent" points="217.29,-2583.65 217.29,-2643.65 598.29,-2643.65 598.29,-2583.65 217.29,-2583.65"/>
<polygon fill="none" stroke="#29235c" points="217.29,-2583.65 217.29,-2643.65 598.29,-2643.65 598.29,-2583.65 217.29,-2583.65"/>
<text text-anchor="start" x="228.29" y="-2603.85" font-family="Helvetica,sans-Serif" font-size="32.00" fill="#29235c">balance &#160;&#160;&#160;</text>
<text text-anchor="start" x="491.25" y="-2604.85" font-family="Helvetica,sans-Serif" font-style="italic" font-size="32.00" fill="#29235c">double</text>
<polygon fill="#e7e2dd" stroke="transparent" points="217.29,-2523.65 217.29,-2583.65 598.29,-2583.65 598.29,-2523.65 217.29,-2523.65"/>
<polygon fill="none" stroke="#29235c" points="217.29,-2523.65 217.29,-2583.65 598.29,-2583.65 598.29,-2523.65 217.29,-2523.65"/>
<text text-anchor="start" x="228.29" y="-2543.85" font-family="Helvetica,sans-Serif" font-size="32.00" fill="#29235c">created_at &#160;&#160;&#160;</text>
<text text-anchor="start" x="439.74" y="-2544.85" font-family="Helvetica,sans-Serif" font-style="italic" font-size="32.00" fill="#29235c">timestamp</text>
<polygon fill="#e7e2dd" stroke="transparent" points="217.29,-2463.65 217.29,-2523.65 598.29,-2523.65 598.29,-2463.65 217.29,-2463.65"/>
<polygon fill="none" stroke="#29235c" points="217.29,-2463.65 217.29,-2523.65 598.29,-2523.65 598.29,-2463.65 217.29,-2463.65"/>
<text text-anchor="start" x="228.29" y="-2483.85" font-family="Helvetica,sans-Serif" font-size="32.00" fill="#29235c">updated_at &#160;&#160;&#160;</text>
<text text-anchor="start" x="439.74" y="-2484.85" font-family="Helvetica,sans-Serif" font-style="italic" font-size="32.00" fill="#29235c">timestamp</text>
<polygon fill="#e7e2dd" stroke="transparent" points="217.29,-2403.65 217.29,-2463.65 598.29,-2463.65 598.29,-2403.65 217.29,-2403.65"/>
<polygon fill="none" stroke="#29235c" points="217.29,-2403.65 217.29,-2463.65 598.29,-2463.65 598.29,-2403.65 217.29,-2403.65"/>
<text text-anchor="start" x="228.29" y="-2423.85" font-family="Helvetica,sans-Serif" font-size="32.00" fill="#29235c">name &#160;&#160;&#160;</text>
<text text-anchor="start" x="480.62" y="-2424.85" font-family="Helvetica,sans-Serif" font-style="italic" font-size="32.00" fill="#29235c">varchar</text>
<polygon fill="#e7e2dd" stroke="transparent" points="217.29,-2343.65 217.29,-2403.65 598.29,-2403.65 598.29,-2343.65 217.29,-2343.65"/>
<polygon fill="none" stroke="#29235c" points="217.29,-2343.65 217.29,-2403.65 598.29,-2403.65 598.29,-2343.65 217.29,-2343.65"/>
<text text-anchor="start" x="228.29" y="-2363.85" font-family="Helvetica,sans-Serif" font-size="32.00" fill="#29235c">email &#160;&#160;&#160;</text>
<text text-anchor="start" x="480.62" y="-2364.85" font-family="Helvetica,sans-Serif" font-style="italic" font-size="32.00" fill="#29235c">varchar</text>
<polygon fill="none" stroke="#29235c" stroke-width="2" points="215.79,-2342.65 215.79,-2764.65 598.79,-2764.65 598.79,-2342.65 215.79,-2342.65"/>
</g>
</g>
</svg>
